%TF.GenerationSoftware,KiCad,Pcbnew,8.0.4*%
%TF.CreationDate,2024-10-15T19:25:32-05:00*%
%TF.ProjectId,touchboard,746f7563-6862-46f6-9172-642e6b696361,rev?*%
%TF.SameCoordinates,Original*%
%TF.FileFunction,Plated,1,2,PTH,Drill*%
%TF.FilePolarity,Positive*%
%FSLAX46Y46*%
G04 Gerber Fmt 4.6, Leading zero omitted, Abs format (unit mm)*
G04 Created by KiCad (PCBNEW 8.0.4) date 2024-10-15 19:25:32*
%MOMM*%
%LPD*%
G01*
G04 APERTURE LIST*
%TA.AperFunction,ViaDrill*%
%ADD10C,0.300000*%
%TD*%
%TA.AperFunction,ViaDrill*%
%ADD11C,0.600000*%
%TD*%
%TA.AperFunction,ComponentDrill*%
%ADD12C,0.600000*%
%TD*%
%TA.AperFunction,ComponentDrill*%
%ADD13C,0.750000*%
%TD*%
%TA.AperFunction,ComponentDrill*%
%ADD14C,0.762000*%
%TD*%
%TA.AperFunction,ComponentDrill*%
%ADD15C,0.800000*%
%TD*%
%TA.AperFunction,ComponentDrill*%
%ADD16C,0.900000*%
%TD*%
%TA.AperFunction,ComponentDrill*%
%ADD17C,0.950000*%
%TD*%
%TA.AperFunction,ComponentDrill*%
%ADD18C,1.000000*%
%TD*%
%TA.AperFunction,ComponentDrill*%
%ADD19C,1.020000*%
%TD*%
%TA.AperFunction,ComponentDrill*%
%ADD20C,1.100000*%
%TD*%
%TA.AperFunction,ComponentDrill*%
%ADD21C,1.300000*%
%TD*%
%TA.AperFunction,ComponentDrill*%
%ADD22C,1.400000*%
%TD*%
G04 APERTURE END LIST*
D10*
X65000000Y-90000000D03*
X70000000Y-82000000D03*
X70000000Y-85000000D03*
X103000000Y-51000000D03*
X107000000Y-49000000D03*
X108000000Y-50000000D03*
X146000000Y-78000000D03*
X150000000Y-79000000D03*
X158000000Y-71000000D03*
X170000000Y-75000000D03*
X171500000Y-76500000D03*
X174000000Y-77000000D03*
X191000000Y-95000000D03*
X196000000Y-84000000D03*
X199000000Y-83000000D03*
D11*
X44000000Y-45000000D03*
X44000000Y-69000000D03*
X44000000Y-91000000D03*
X44000000Y-99000000D03*
X51000000Y-94000000D03*
X79000000Y-45000000D03*
X79000000Y-69000000D03*
X87000000Y-85000000D03*
X102000000Y-45000000D03*
X107000000Y-100000000D03*
X111000000Y-82000000D03*
X117000000Y-86000000D03*
X122000000Y-59000000D03*
X145000000Y-88000000D03*
X145000000Y-98000000D03*
X151000000Y-60000000D03*
X153427717Y-87867390D03*
X179000000Y-46000000D03*
X198000000Y-45000000D03*
X199000000Y-67000000D03*
X201000000Y-102000000D03*
X208000000Y-45000000D03*
X208000000Y-58000000D03*
X208670183Y-84489692D03*
D12*
%TO.C,C34*%
X131000000Y-82500000D03*
X131000000Y-84000000D03*
%TO.C,C6*%
X173500000Y-91000000D03*
X175000000Y-91000000D03*
%TO.C,C4*%
X176000000Y-58500000D03*
X176000000Y-60000000D03*
%TO.C,C8*%
X178500000Y-91000000D03*
X180000000Y-91000000D03*
D13*
%TO.C,Q1*%
X180000000Y-63460000D03*
X180000000Y-64730000D03*
X180000000Y-66000000D03*
%TO.C,Q2*%
X187000000Y-63730000D03*
X187000000Y-65000000D03*
X187000000Y-66270000D03*
D14*
%TO.C,U7*%
X151750000Y-83825000D03*
X154290000Y-83825000D03*
X156830000Y-83825000D03*
X159370000Y-83825000D03*
X161910000Y-83825000D03*
X164450000Y-83825000D03*
D15*
%TO.C,C32*%
X82000000Y-99500000D03*
X84500000Y-99500000D03*
%TO.C,C2*%
X111500000Y-61000000D03*
X114000000Y-61000000D03*
%TO.C,C3*%
X114347349Y-70000000D03*
X117847349Y-70000000D03*
%TO.C,C35*%
X135500000Y-83000000D03*
X138000000Y-83000000D03*
%TO.C,C33*%
X143000000Y-81000000D03*
X143000000Y-83500000D03*
%TO.C,R2*%
X152190000Y-67000000D03*
%TO.C,R6*%
X158000000Y-96000000D03*
%TO.C,R10*%
X158190000Y-92000000D03*
%TO.C,R2*%
X159810000Y-67000000D03*
%TO.C,R1*%
X163000000Y-58190000D03*
X163000000Y-65810000D03*
%TO.C,R6*%
X165620000Y-96000000D03*
%TO.C,R10*%
X165810000Y-92000000D03*
%TO.C,R8*%
X167190000Y-83000000D03*
%TO.C,R7*%
X167190000Y-87000000D03*
%TO.C,C1*%
X167347349Y-62000000D03*
X170847349Y-62000000D03*
%TO.C,R8*%
X174810000Y-83000000D03*
%TO.C,R7*%
X174810000Y-87000000D03*
%TO.C,C7*%
X175500000Y-97000000D03*
X178000000Y-97000000D03*
%TO.C,RSD1*%
X180143000Y-75420000D03*
%TO.C,RG1*%
X180143000Y-79420000D03*
%TO.C,C5*%
X181000000Y-57500000D03*
X181000000Y-60000000D03*
%TO.C,C9*%
X181500000Y-96000000D03*
X184000000Y-96000000D03*
%TO.C,R3*%
X184190000Y-60000000D03*
%TO.C,RSD1*%
X187763000Y-75420000D03*
%TO.C,RG1*%
X187763000Y-79420000D03*
%TO.C,R5*%
X188000000Y-46190000D03*
X188000000Y-53810000D03*
%TO.C,R3*%
X191810000Y-60000000D03*
%TO.C,R4*%
X195000000Y-56190000D03*
X195000000Y-63810000D03*
D16*
%TO.C,U6*%
X54920000Y-95130000D03*
X54920000Y-97670000D03*
X57460000Y-95130000D03*
X57460000Y-97670000D03*
X60000000Y-95130000D03*
X60000000Y-97670000D03*
X62540000Y-95130000D03*
X62540000Y-97670000D03*
X65080000Y-95130000D03*
X65080000Y-97670000D03*
%TO.C,U1*%
X115030000Y-105890000D03*
X117570000Y-105890000D03*
X120110000Y-105890000D03*
X122650000Y-88110000D03*
X122650000Y-105890000D03*
X125190000Y-88110000D03*
X125190000Y-105890000D03*
X127730000Y-88110000D03*
X127730000Y-105890000D03*
X130270000Y-88110000D03*
X130270000Y-105890000D03*
X132810000Y-88110000D03*
X132810000Y-105890000D03*
X135350000Y-88110000D03*
X135350000Y-105890000D03*
X137890000Y-105890000D03*
X140430000Y-105890000D03*
X142970000Y-105890000D03*
%TO.C,D2*%
X166905000Y-53000000D03*
X169445000Y-53000000D03*
%TO.C,D3*%
X170000000Y-100000000D03*
X170000000Y-102540000D03*
%TO.C,D4*%
X192000000Y-46000000D03*
X194540000Y-46000000D03*
D17*
%TO.C,J5*%
X148000000Y-101000000D03*
X150500000Y-101000000D03*
X153000000Y-101000000D03*
%TO.C,J4*%
X176250000Y-101000000D03*
X178750000Y-101000000D03*
X181250000Y-101000000D03*
X183750000Y-101000000D03*
D18*
%TO.C,JP2*%
X46000000Y-115460000D03*
X46000000Y-118000000D03*
X46000000Y-120540000D03*
%TO.C,JP3*%
X52000000Y-115460000D03*
X52000000Y-118000000D03*
X52000000Y-120540000D03*
%TO.C,U2*%
X118000000Y-45110000D03*
X118000000Y-62890000D03*
X158640000Y-45110000D03*
X158640000Y-62890000D03*
%TO.C,J8*%
X160500000Y-101000000D03*
X163000000Y-101000000D03*
%TO.C,J2*%
X165000000Y-46000000D03*
X167500000Y-46000000D03*
%TO.C,JP1*%
X188000000Y-84920000D03*
X188000000Y-87460000D03*
X188000000Y-90000000D03*
%TO.C,U4*%
X192999000Y-67260000D03*
X192999000Y-69800000D03*
X192999000Y-72340000D03*
X192999000Y-74880000D03*
X192999000Y-77420000D03*
X192999000Y-79960000D03*
X192999000Y-82500000D03*
%TO.C,U5*%
X193046000Y-86260000D03*
X193046000Y-88800000D03*
X193046000Y-91340000D03*
X193046000Y-93880000D03*
X193046000Y-96420000D03*
X193046000Y-98960000D03*
X193046000Y-101500000D03*
D19*
%TO.C,U3*%
X82300000Y-53485000D03*
X82300000Y-56025000D03*
X82300000Y-58565000D03*
X82300000Y-61105000D03*
X82300000Y-63645000D03*
X82300000Y-66185000D03*
X82300000Y-68725000D03*
X82300000Y-71265000D03*
X82300000Y-73805000D03*
X82300000Y-76345000D03*
X82300000Y-78885000D03*
X82300000Y-81425000D03*
X82300000Y-83965000D03*
X82300000Y-86505000D03*
X82300000Y-89045000D03*
X107700000Y-53485000D03*
X107700000Y-56025000D03*
X107700000Y-58565000D03*
X107700000Y-61105000D03*
X107700000Y-63645000D03*
X107700000Y-66185000D03*
X107700000Y-68725000D03*
X107700000Y-71265000D03*
X107700000Y-73805000D03*
X107700000Y-76345000D03*
X107700000Y-78885000D03*
X107700000Y-81425000D03*
X107700000Y-83965000D03*
X107700000Y-86505000D03*
X107700000Y-89045000D03*
D20*
%TO.C,Q3*%
X200460000Y-63000000D03*
X203000000Y-63000000D03*
X205540000Y-63000000D03*
D21*
%TO.C,D1*%
X123380000Y-69000000D03*
X138620000Y-69000000D03*
D22*
%TO.C,J1*%
X176500000Y-53777500D03*
X181500000Y-53777500D03*
%TO.C,J3*%
X199222500Y-47500000D03*
X199222500Y-52500000D03*
M02*
